<svg width="34" height="34" viewBox="0 0 34 34" fill="none" xmlns="http://www.w3.org/2000/svg">
<path fill-rule="evenodd" clip-rule="evenodd" d="M7.99131 8.49997H26.0091C25.3727 6.69921 23.6553 5.40906 21.6366 5.40906H12.3639C10.3452 5.40906 8.62779 6.69922 7.99131 8.49997ZM11.591 28.5909C9.43075 28.5909 8.35061 28.5909 7.49858 28.238C6.36254 27.7674 5.45996 26.8648 4.9894 25.7288C4.63647 24.8767 4.63647 23.7966 4.63647 21.6363V17.7727C4.63647 15.6124 4.63647 14.5323 4.9894 13.6803C5.45996 12.5442 6.36254 11.6416 7.49858 11.1711C8.35061 10.8181 9.43075 10.8181 11.591 10.8181H22.4092C24.5695 10.8181 25.6496 10.8181 26.5016 11.1711C27.6377 11.6416 28.5403 12.5442 29.0108 13.6803C29.3637 14.5323 29.3637 15.6124 29.3637 17.7727V21.6363C29.3637 23.7966 29.3637 24.8767 29.0108 25.7288C28.5403 26.8648 27.6377 27.7674 26.5016 28.238C25.6496 28.5909 24.5695 28.5909 22.4092 28.5909H11.591ZM7.72727 16.3973C7.72727 15.5172 7.72727 15.0771 7.90127 14.7422C8.0479 14.4599 8.27805 14.2297 8.56031 14.0831C8.89527 13.9091 9.33533 13.9091 10.2155 13.9091H23.7845C24.6647 13.9091 25.1047 13.9091 25.4397 14.0831C25.722 14.2297 25.9521 14.4599 26.0987 14.7422C26.2727 15.0771 26.2727 15.5172 26.2727 16.3973V23.0119C26.2727 23.892 26.2727 24.332 26.0987 24.667C25.9521 24.9493 25.722 25.1794 25.4397 25.326C25.1047 25.5 24.6647 25.5 23.7845 25.5H10.2155C9.33533 25.5 8.89527 25.5 8.56031 25.326C8.27805 25.1794 8.0479 24.9493 7.90127 24.667C7.72727 24.332 7.72727 23.892 7.72727 23.0119V16.3973Z" fill="white"/>
</svg>
