<svg width="34" height="34" viewBox="0 0 34 34" fill="none" xmlns="http://www.w3.org/2000/svg">
<path fill-rule="evenodd" clip-rule="evenodd" d="M18.1591 10.7409C18.1591 9.00985 18.1591 8.14432 18.496 7.48314C18.7923 6.90154 19.2652 6.4287 19.8468 6.13236C20.5079 5.79547 21.3735 5.79547 23.1045 5.79547H23.2591C24.9902 5.79547 25.8557 5.79547 26.5169 6.13236C27.0985 6.4287 27.5713 6.90154 27.8677 7.48314C28.2045 8.14432 28.2045 9.00986 28.2045 10.7409V10.8955C28.2045 12.6265 28.2045 13.4921 27.8677 14.1533C27.5713 14.7349 27.0985 15.2077 26.5169 15.504C25.8557 15.8409 24.9902 15.8409 23.2591 15.8409H23.1045C21.3735 15.8409 20.5079 15.8409 19.8468 15.504C19.2652 15.2077 18.7923 14.7349 18.496 14.1533C18.1591 13.4921 18.1591 12.6265 18.1591 10.8955V10.7409ZM15.8409 10.7409C15.8409 9.00987 15.8409 8.14434 15.504 7.48315C15.2076 6.90156 14.7348 6.42871 14.1532 6.13238C13.492 5.79549 12.6265 5.79549 10.8954 5.79549H10.7409C9.00979 5.79549 8.14426 5.79549 7.48308 6.13238C6.90148 6.42871 6.42863 6.90156 6.1323 7.48315C5.79541 8.14434 5.79541 9.00987 5.79541 10.7409V10.8955C5.79541 12.6266 5.79541 13.4921 6.1323 14.1533C6.42863 14.7349 6.90148 15.2077 7.48308 15.5041C8.14426 15.8409 9.00979 15.8409 10.7409 15.8409H10.8954C12.6265 15.8409 13.492 15.8409 14.1532 15.5041C14.7348 15.2077 15.2076 14.7349 15.504 14.1533C15.8409 13.4921 15.8409 12.6266 15.8409 10.8955V10.7409ZM15.8409 23.1046C15.8409 21.3735 15.8409 20.508 15.504 19.8468C15.2077 19.2652 14.7348 18.7923 14.1532 18.496C13.4921 18.1591 12.6265 18.1591 10.8955 18.1591H10.7409C9.00984 18.1591 8.1443 18.1591 7.48312 18.496C6.90153 18.7923 6.42868 19.2652 6.13234 19.8468C5.79545 20.508 5.79545 21.3735 5.79545 23.1046V23.2591C5.79545 24.9902 5.79545 25.8557 6.13234 26.5169C6.42868 27.0985 6.90153 27.5713 7.48312 27.8677C8.1443 28.2046 9.00984 28.2046 10.7409 28.2046H10.8955C12.6265 28.2046 13.4921 28.2046 14.1532 27.8677C14.7348 27.5713 15.2077 27.0985 15.504 26.5169C15.8409 25.8557 15.8409 24.9902 15.8409 23.2591V23.1046ZM28.2045 23.1046C28.2045 21.3735 28.2045 20.508 27.8677 19.8468C27.5713 19.2652 27.0985 18.7923 26.5169 18.496C25.8557 18.1591 24.9902 18.1591 23.2591 18.1591H23.1045C21.3735 18.1591 20.5079 18.1591 19.8468 18.496C19.2652 18.7923 18.7923 19.2652 18.496 19.8468C18.1591 20.508 18.1591 21.3735 18.1591 23.1046V23.2591C18.1591 24.9902 18.1591 25.8557 18.496 26.5169C18.7923 27.0985 19.2652 27.5713 19.8468 27.8677C20.5079 28.2046 21.3735 28.2046 23.1045 28.2046H23.2591C24.9902 28.2046 25.8557 28.2046 26.5169 27.8677C27.0985 27.5713 27.5713 27.0985 27.8677 26.5169C28.2045 25.8557 28.2045 24.9902 28.2045 23.2591V23.1046ZM8.88636 10.1227C8.88636 9.68996 8.88636 9.47358 8.97059 9.30828C9.04467 9.16288 9.16288 9.04467 9.30828 8.97059C9.47358 8.88636 9.68996 8.88636 10.1227 8.88636H11.5136C11.9464 8.88636 12.1628 8.88636 12.3281 8.97059C12.4735 9.04467 12.5917 9.16288 12.6658 9.30828C12.75 9.47358 12.75 9.68996 12.75 10.1227V11.5136C12.75 11.9464 12.75 12.1628 12.6658 12.3281C12.5917 12.4735 12.4735 12.5917 12.3281 12.6658C12.1628 12.75 11.9464 12.75 11.5136 12.75H10.1227C9.68996 12.75 9.47358 12.75 9.30828 12.6658C9.16288 12.5917 9.04467 12.4735 8.97059 12.3281C8.88636 12.1628 8.88636 11.9464 8.88636 11.5136V10.1227ZM8.97059 21.6719C8.88636 21.8372 8.88636 22.0536 8.88636 22.4864V23.8773C8.88636 24.31 8.88636 24.5264 8.97059 24.6917C9.04467 24.8371 9.16288 24.9553 9.30828 25.0294C9.47358 25.1136 9.68996 25.1136 10.1227 25.1136H11.5136C11.9464 25.1136 12.1628 25.1136 12.3281 25.0294C12.4735 24.9553 12.5917 24.8371 12.6658 24.6917C12.75 24.5264 12.75 24.31 12.75 23.8773V22.4864C12.75 22.0536 12.75 21.8372 12.6658 21.6719C12.5917 21.5265 12.4735 21.4083 12.3281 21.3342C12.1628 21.25 11.9464 21.25 11.5136 21.25H10.1227C9.68996 21.25 9.47358 21.25 9.30828 21.3342C9.16288 21.4083 9.04467 21.5265 8.97059 21.6719ZM21.25 10.1227C21.25 9.68996 21.25 9.47358 21.3342 9.30828C21.4083 9.16288 21.5265 9.04467 21.6719 8.97059C21.8372 8.88636 22.0536 8.88636 22.4864 8.88636H23.8773C24.31 8.88636 24.5264 8.88636 24.6917 8.97059C24.8371 9.04467 24.9553 9.16288 25.0294 9.30828C25.1136 9.47358 25.1136 9.68996 25.1136 10.1227V11.5136C25.1136 11.9464 25.1136 12.1628 25.0294 12.3281C24.9553 12.4735 24.8371 12.5917 24.6917 12.6658C24.5264 12.75 24.31 12.75 23.8773 12.75H22.4864C22.0536 12.75 21.8372 12.75 21.6719 12.6658C21.5265 12.5917 21.4083 12.4735 21.3342 12.3281C21.25 12.1628 21.25 11.9464 21.25 11.5136V10.1227ZM21.3342 21.6719C21.25 21.8372 21.25 22.0536 21.25 22.4864V23.8773C21.25 24.31 21.25 24.5264 21.3342 24.6917C21.4083 24.8371 21.5265 24.9553 21.6719 25.0294C21.8372 25.1136 22.0536 25.1136 22.4864 25.1136H23.8773C24.31 25.1136 24.5264 25.1136 24.6917 25.0294C24.8371 24.9553 24.9553 24.8371 25.0294 24.6917C25.1136 24.5264 25.1136 24.31 25.1136 23.8773V22.4864C25.1136 22.0536 25.1136 21.8372 25.0294 21.6719C24.9553 21.5265 24.8371 21.4083 24.6917 21.3342C24.5264 21.25 24.31 21.25 23.8773 21.25H22.4864C22.0536 21.25 21.8372 21.25 21.6719 21.3342C21.5265 21.4083 21.4083 21.5265 21.3342 21.6719Z" fill="white"/>
</svg>
