<svg width="34" height="34" viewBox="0 0 34 34" fill="none" xmlns="http://www.w3.org/2000/svg">
<path fill-rule="evenodd" clip-rule="evenodd" d="M10.8181 18.4126V7.75851C10.8181 7.75851 26.0357 5.5237 27.8181 5.28992C27.8181 6.28213 27.8181 21.6638 27.8181 21.6638C27.8186 21.6943 27.8181 21.725 27.8181 21.7557C27.8181 24.743 25.3964 27.1647 22.409 27.1647C19.4216 27.1647 16.9999 24.743 16.9999 21.7557C16.9999 18.7683 19.4216 16.3466 22.409 16.3466C23.2386 16.3466 24.0246 16.5333 24.7272 16.8671V9.0418L13.909 10.6047V23.3011C13.909 26.2885 11.4873 28.7102 8.49991 28.7102C5.51255 28.7102 3.09082 26.2885 3.09082 23.3011C3.09082 20.3138 5.51255 17.892 8.49991 17.892C9.32951 17.892 10.1155 18.0788 10.8181 18.4126ZM22.409 24.0738C23.6893 24.0738 24.7272 23.036 24.7272 21.7557C24.7272 20.4754 23.6893 19.4375 22.409 19.4375C21.1287 19.4375 20.0908 20.4754 20.0908 21.7557C20.0908 23.036 21.1287 24.0738 22.409 24.0738ZM10.8181 23.3011C10.8181 24.5814 9.78021 25.6193 8.49991 25.6193C7.21961 25.6193 6.18173 24.5814 6.18173 23.3011C6.18173 22.0208 7.21961 20.9829 8.49991 20.9829C9.78021 20.9829 10.8181 22.0208 10.8181 23.3011Z" fill="white"/>
</svg>
