<svg width="35" height="35" viewBox="0 0 35 35" fill="none" xmlns="http://www.w3.org/2000/svg">
<path fill-rule="evenodd" clip-rule="evenodd" d="M22.4463 5.37744L24.6079 7.53903L20.6115 11.5354H22.6694C24.8326 11.5354 25.9143 11.5354 26.7675 11.8841C27.9051 12.349 28.8089 13.2406 29.2802 14.3629C29.6336 15.2047 29.6336 16.2718 29.6336 18.4059V22.2229C29.6336 24.3571 29.6336 25.4242 29.2802 26.2659C28.8089 27.3882 27.9051 28.2799 26.7675 28.7448C25.9143 29.0934 24.8326 29.0934 22.6694 29.0934H11.8362C9.67288 29.0934 8.59124 29.0934 7.73803 28.7448C6.60041 28.2799 5.69658 27.3882 5.22536 26.2659C4.87195 25.4242 4.87195 24.3571 4.87195 22.2229V18.4059C4.87195 16.2718 4.87195 15.2047 5.22536 14.3629C5.69658 13.2406 6.60041 12.349 7.73803 11.8841C8.59124 11.5354 9.67288 11.5354 11.8362 11.5354H13.473L9.47671 7.53917L11.6383 5.37758L17.0422 10.7815L22.4463 5.37744ZM8.0436 15.4281C7.87152 15.7594 7.87152 16.1946 7.87152 17.065V23.6069C7.87152 24.4774 7.87152 24.9126 8.0436 25.2439C8.18862 25.523 8.41624 25.7506 8.6954 25.8957C9.02668 26.0677 9.46191 26.0677 10.3324 26.0677H23.7523C24.6228 26.0677 25.058 26.0677 25.3893 25.8957C25.6685 25.7506 25.8961 25.523 26.0411 25.2439C26.2132 24.9126 26.2132 24.4774 26.2132 23.6069V17.065C26.2132 16.1946 26.2132 15.7594 26.0411 15.4281C25.8961 15.1489 25.6685 14.9213 25.3893 14.7763C25.058 14.6042 24.6228 14.6042 23.7523 14.6042H10.3324C9.46191 14.6042 9.02668 14.6042 8.6954 14.7763C8.41624 14.9213 8.18862 15.1489 8.0436 15.4281Z" fill="white"/>
</svg>
